<?xml version="1.0" encoding="utf-8"?>
<!-- Generator: Adobe Illustrator 25.4.1, SVG Export Plug-In . SVG Version: 6.00 Build 0)  -->
<svg version="1.1" id="Layer_1" xmlns="http://www.w3.org/2000/svg" xmlns:xlink="http://www.w3.org/1999/xlink" x="0px" y="0px"
	 viewBox="0 0 42 38" style="enable-background:new 0 0 42 38;" xml:space="preserve">
<path d="M29.2,22.9c-0.6,0-1.1,0.5-1.1,1.1c0,0,0,0,0,0c0,0.6,0.5,1.1,1.1,1.1c0,0,0,0,0,0c0.6,0,1.1-0.5,1.1-1.1l0,0
	C30.3,23.4,29.8,22.9,29.2,22.9z"/>
<path d="M23.7,22.9c-0.6,0-1.1,0.5-1.1,1.1c0,0,0,0,0,0c0,0.6,0.5,1.1,1.1,1.1c0.6,0,1.1-0.5,1.1-1.1l0,0
	C24.8,23.4,24.3,22.9,23.7,22.9z"/>
<path d="M34.7,22.9c-0.6,0-1.1,0.5-1.1,1.1c0,0,0,0,0,0c0,0.6,0.5,1.1,1.1,1.1c0.6,0,1.1-0.5,1.1-1.1c0,0,0,0,0,0l0,0
	C35.8,23.4,35.3,22.9,34.7,22.9z"/>
<path d="M35.7,13.3H25.6v-7c0-3.5-2.9-6.3-6.3-6.3H6.3C2.8,0,0,2.8,0,6.3v8.4c0,3.4,2.7,6.1,6,6.3l3.8,3.4c0.2,0.2,0.4,0.3,0.7,0.3
	h0.1c0.3,0,0.5-0.2,0.7-0.5l2.1-3.2h3.1v7c0,3.5,2.8,6.3,6.3,6.3h5.9l2,3.2c0.2,0.2,0.4,0.4,0.7,0.5h0.1c0.2,0,0.5-0.1,0.7-0.3
	l3.8-3.4c3.3-0.2,5.9-3,5.9-6.3v-8.4C42,16.1,39.2,13.3,35.7,13.3z M16.4,19.1h-3.7c-0.3,0-0.7,0.2-0.8,0.5l-1.7,2.7L7,19.3
	c-0.2-0.2-0.4-0.2-0.7-0.3c-2.4,0-4.3-1.9-4.3-4.3V6.3C2,3.9,3.9,2,6.3,2c0,0,0,0,0,0h12.9c2.4,0,4.3,1.9,4.3,4.3v8.4
	c0,0.2,0,0.4-0.1,0.6l0,0c0,0.3-0.1,0.5-0.2,0.8l0,0c-0.1,0.2-0.2,0.4-0.3,0.7v0.1c-0.1,0.2-0.2,0.4-0.4,0.6l-0.1,0.1
	c-0.1,0.2-0.3,0.3-0.4,0.4c-0.1,0-0.1,0.1-0.2,0.2c-0.1,0.1-0.3,0.2-0.4,0.3l-0.3,0.2l-0.4,0.2c-0.2,0.1-0.3,0.1-0.5,0.1
	c-0.1,0-0.2,0.1-0.3,0.1C19.9,19,19.6,19,19.3,19L16.4,19.1L16.4,19.1z M40,28c0,2.4-1.9,4.3-4.3,4.3c0,0,0,0,0,0
	c-0.2,0-0.5,0.1-0.7,0.3l-3.2,2.9l-1.7-2.7c-0.2-0.3-0.5-0.5-0.8-0.5h-6.5c-2.4,0-4.3-1.9-4.3-4.3v-7h0.8c3.3,0,6-2.5,6.3-5.8h10.1
	c2.4,0,4.3,1.9,4.3,4.4V28z"/>
<path d="M11.7,13.3v-1c0-0.2,0-0.4,0-0.7c0-0.2,0.1-0.3,0.2-0.5c0.1-0.2,0.2-0.3,0.3-0.4l0.4-0.5L14,8.8c0.3-0.3,0.5-0.7,0.4-1.2
	c0-0.4-0.1-0.8-0.4-1.1c-0.3-0.3-0.7-0.5-1.1-0.4c-0.5,0-0.9,0.2-1.2,0.5c-0.3,0.3-0.5,0.8-0.6,1.2L8.9,7.7c0.1-0.5,0.2-1,0.4-1.5
	C9.5,5.7,9.8,5.4,10.2,5c0.4-0.3,0.8-0.5,1.2-0.7c0.5-0.2,1-0.2,1.6-0.2c0.5,0,1,0.1,1.5,0.2c0.4,0.1,0.8,0.4,1.2,0.7
	c0.3,0.3,0.6,0.7,0.8,1.1c0.2,0.5,0.3,1,0.3,1.5c0,0.3-0.1,0.7-0.2,1c-0.1,0.3-0.3,0.6-0.4,0.8c-0.2,0.3-0.4,0.5-0.6,0.7l-0.7,0.7
	c-0.2,0.2-0.3,0.3-0.4,0.4c-0.1,0.1-0.2,0.2-0.3,0.4C14,11.7,14,11.8,13.9,12c0,0.2-0.1,0.4-0.1,0.6v0.7L11.7,13.3z M11.4,15.7
	c0-0.4,0.1-0.7,0.4-1c0.3-0.3,0.6-0.4,1-0.4c0.4,0,0.7,0.1,1,0.4c0.3,0.3,0.4,0.6,0.4,1c0,0.4-0.1,0.7-0.4,1c-0.3,0.3-0.6,0.4-1,0.4
	c-0.2,0-0.4,0-0.5-0.1c-0.2-0.1-0.3-0.2-0.4-0.3c-0.1-0.1-0.2-0.3-0.3-0.4C11.4,16.1,11.4,15.9,11.4,15.7z"/>
</svg>
