<?xml version="1.0" encoding="utf-8"?>
<!-- Generator: Adobe Illustrator 25.4.1, SVG Export Plug-In . SVG Version: 6.00 Build 0)  -->
<svg version="1.1" id="Layer_1" xmlns="http://www.w3.org/2000/svg" xmlns:xlink="http://www.w3.org/1999/xlink" x="0px" y="0px"
	 viewBox="0 0 20 20" style="enable-background:new 0 0 20 20;" xml:space="preserve">
<style type="text/css">
	.st0{fill:#FFFFFF;}
</style>
<path id="XMLID_127_" class="st0" d="M10,0.1c-5.4,0-9.9,4.4-9.9,9.9c0,5.4,4.4,9.9,9.9,9.9c5.4,0,9.9-4.4,9.9-9.9
	C19.9,4.5,15.4,0.1,10,0.1z M14,13.9c-0.2,0.3-0.5,0.3-0.7,0.2c-2-1.3-4.6-1.5-7.7-0.8c-0.3,0.1-0.6-0.1-0.7-0.4
	c-0.1-0.3,0.1-0.6,0.4-0.7c3.3-0.7,6.2-0.4,8.5,1C14.1,13.2,14.2,13.6,14,13.9z M15.1,11.5c-0.2,0.3-0.6,0.4-0.9,0.2
	c-2.4-1.4-5.9-1.9-8.7-1c-0.3,0.1-0.7-0.1-0.8-0.4C4.6,9.9,4.7,9.5,5.1,9.4c3.2-1,7.1-0.5,9.8,1.2C15.2,10.7,15.3,11.1,15.1,11.5z
	 M15.2,9C12.4,7.4,7.7,7.2,5.1,8c-0.4,0.1-0.9-0.1-1-0.5c-0.1-0.4,0.1-0.9,0.5-1C7.7,5.6,12.8,5.7,16,7.7c0.4,0.2,0.5,0.7,0.3,1.1
	C16.1,9.1,15.6,9.2,15.2,9z"/>
</svg>
