<?xml version="1.0" encoding="utf-8"?>
<!-- Generator: Adobe Illustrator 25.4.1, SVG Export Plug-In . SVG Version: 6.00 Build 0)  -->
<svg version="1.1" id="Layer_1" xmlns="http://www.w3.org/2000/svg" xmlns:xlink="http://www.w3.org/1999/xlink" x="0px" y="0px"
	 viewBox="0 0 20 20" style="enable-background:new 0 0 20 20;" xml:space="preserve">
<style type="text/css">
	.st0{fill:#FFFFFF;}
</style>
<g id="telegramicon" transform="translate(-0.1 -0.1)">
	<path id="Path_239" class="st0" d="M13.2,7.4l-6.6,4.1c-0.1,0.1-0.2,0.2-0.1,0.3l1.4,3.5H8l0.1-2.9c0-0.1,0-0.1,0.1-0.2l5.1-4.6
		C13.4,7.6,13.4,7.5,13.2,7.4L13.2,7.4z"/>
	<path id="Path_241" class="st0" d="M0.2,10.1L0.2,10.1c0,5.4,4.4,9.9,9.8,9.9c0,0,0.1,0,0.1,0l0,0c5.4,0,9.9-4.4,9.9-9.8
		c0,0,0-0.1,0-0.1l0,0c0-5.4-4.4-9.9-9.8-9.9c0,0-0.1,0-0.1,0l0,0C4.7,0.2,0.2,4.6,0.2,10.1C0.2,10,0.2,10.1,0.2,10.1z M15.3,6.3
		l-1.8,8.8c-0.1,0.3-0.4,0.5-0.7,0.4c-0.1,0-0.1,0-0.2-0.1l-2.8-2l-1.4,1.4c-0.2,0.2-0.5,0.2-0.7,0c0,0,0,0,0,0
		c-0.1-0.1-0.1-0.1-0.1-0.2l-1-3.2l-2.7-0.8c-0.2-0.1-0.3-0.3-0.3-0.5c0-0.1,0.1-0.2,0.2-0.3l10.7-4.2c0.3-0.1,0.6,0,0.7,0.3
		c0,0,0,0,0,0C15.3,6.1,15.4,6.2,15.3,6.3z"/>
</g>
</svg>
